<?xml version="1.0" encoding="UTF-8" standalone="no"?>
<!-- Created with Inkscape (http://www.inkscape.org/) -->

<svg
   version="1.1"
   id="svg55"
   width="1024"
   height="1024"
   viewBox="0 0 1024 1024"
   sodipodi:docname="logo.svg"
   inkscape:version="1.1.2 (0a00cf5339, 2022-02-04)"
   xmlns:inkscape="http://www.inkscape.org/namespaces/inkscape"
   xmlns:sodipodi="http://sodipodi.sourceforge.net/DTD/sodipodi-0.dtd"
   xmlns="http://www.w3.org/2000/svg"
   xmlns:svg="http://www.w3.org/2000/svg">
  <defs
     id="defs59" />
  <sodipodi:namedview
     id="namedview57"
     pagecolor="#ffffff"
     bordercolor="#666666"
     borderopacity="1.0"
     inkscape:pageshadow="2"
     inkscape:pageopacity="0.0"
     inkscape:pagecheckerboard="0"
     showgrid="false"
     inkscape:zoom="0.86425781"
     inkscape:cx="185.12994"
     inkscape:cy="512"
     inkscape:window-width="1850"
     inkscape:window-height="1136"
     inkscape:window-x="70"
     inkscape:window-y="27"
     inkscape:window-maximized="1"
     inkscape:current-layer="g61" />
  <g
     inkscape:groupmode="layer"
     inkscape:label="Image"
     id="g61">
    <path
       style="fill:#000000"
       d="m 377.51528,775.30654 c 0.005,-0.9625 2.30933,-9.625 5.11964,-19.25 2.8103,-9.625 5.1683,-18.2103 5.24,-19.0786 0.0785,-0.9509 -6.33107,-6.4166 -16.11963,-13.74576 -8.9375,-6.69194 -16.25,-12.61907 -16.25,-13.17139 0,-0.63995 7.52679,-1.00508 20.75,-1.00659 l 20.75,-0.002 4.58467,-14.99763 4.58466,-14.99763 h -8.71465 -8.71465 l 5.41378,-14.25 c 10.08785,-26.553 14.40816,-33.31361 26.37094,-41.26645 11.38924,-7.57156 20.5735,-10.79448 56.97525,-19.99367 38.11297,-9.63163 42.67267,-11.13859 47.75,-15.78117 1.66594,-1.52329 2.25,-3.17423 2.25,-6.35997 0,-7.03332 -1.56545,-7.54294 -22.01072,-7.1655 l -17.158,0.31676 -2.91564,3.26578 c -1.6036,1.7958 -2.91564,3.9333 -2.91564,4.74963 0,1.26022 -2.86754,1.48422 -19,1.48422 -10.45,0 -18.97807,-0.3375 -18.95126,-0.75 0.0268,-0.4125 1.7143,-3.07013 3.75,-5.90585 22.95821,-31.98073 23.08514,-32.12789 30.20126,-35.01711 4.0853,-1.65867 8.00189,-1.82666 42.5,-1.82289 37.2456,0.004 38.1123,0.0495 43.65669,2.28694 6.15122,2.48236 13.31788,9.26725 14.41783,13.6498 0.35326,1.40751 0.95524,2.55911 1.33772,2.55911 0.38249,0 2.2462,-1.63123 4.14159,-3.62496 5.01165,-5.27166 12.53627,-9.8415 20.48183,-12.439 6.89823,-2.25511 7.42474,-2.27473 55.46434,-2.06756 32.07749,0.13833 49.68513,0.58357 52,1.3149 9.37599,2.96211 15,9.97984 15,18.71722 0,4.38909 -7.28421,30.532 -9.12523,32.75029 -2.68399,3.23402 -5.68422,3.85909 -20.87477,4.34911 l -15.5,0.5 5.92313,1.94135 c 11.07273,3.62916 17.57203,10.6575 17.57532,19.00593 0.002,4.77868 -7.82093,28.26441 -12.52772,37.61084 -4.6704,9.27419 -12.84582,17.84225 -21.20716,22.2257 -12.49156,6.54872 -14.06178,6.71618 -62.97641,6.71618 -46.7707,0 -50.75438,-0.35451 -57.44153,-5.1117 -2.13944,-1.52198 -4.43962,-1.8883 -11.85699,-1.8883 -6.94094,0 -9.08948,0.30721 -8.74228,1.25 1.20327,3.26741 5.77974,17.86977 7.20833,23 l 1.60118,5.75 h 20.47206 c 13.05557,0 20.47207,0.36425 20.47207,1.00547 0,0.553 -7.18124,6.2905 -15.95831,12.75 -10.30494,7.5839 -15.83637,12.2759 -15.61409,13.2445 0.18933,0.825 2.92182,10.1863 6.07221,20.8028 3.15038,10.6165 5.49026,19.5405 5.19973,19.831 -0.29054,0.2906 -1.45022,0.035 -2.57708,-0.5682 -2.3803,-1.2739 -26.56048,-19.3835 -29.84049,-22.3489 l -2.21803,-2.0052 -5.78197,4.3672 c -13.28392,10.0338 -28.51066,20.9213 -29.25936,20.9213 -0.87014,0 -0.12191,-2.8623 6.57506,-25.1531 2.42128,-8.0591 4.40233,-15.0914 4.40233,-15.6273 0,-0.5358 -6.1875,-5.5898 -13.75,-11.2311 -7.5625,-5.64135 -14.9634,-11.38265 -16.44644,-12.75849 l -2.69643,-2.50153 -15.80357,11.82587 c -8.69196,6.50425 -16.15529,12.11455 -16.58519,12.46735 -0.42989,0.3529 1.96843,9.9815 5.3296,21.397 3.36118,11.4155 5.89293,20.9738 5.62611,21.2406 -0.70906,0.709 -6.53134,-3.1725 -21.1026,-14.0686 -7.11068,-5.3172 -13.50379,-9.4469 -14.2069,-9.1771 -1.12846,0.433 -18.40141,12.9914 -28.55594,20.7618 -4.25562,3.2564 -5.81275,3.545 -5.79865,1.0746 z M 512.5374,701.80657 c 1.16424,-3.9875 2.98329,-10.22352 4.04234,-13.85781 1.05905,-3.6343 1.92555,-7.1218 1.92555,-7.75 0,-0.84106 -13.21297,-1.14219 -50.11663,-1.14219 -47.25221,0 -50.08831,0.10002 -49.62115,1.75 0.27251,0.9625 2.18165,7.7125 4.24254,15 l 3.74706,13.25 h 41.83174 41.83175 z m 149.21455,-30.57085 c 7.38445,-2.98164 15.57718,-10.49106 19.50318,-17.87652 3.7862,-7.12245 11.26184,-28.55563 11.21836,-32.16379 -0.0376,-3.12139 -1.55977,-5.32808 -4.90474,-7.11051 -1.82526,-0.97263 -49.29497,-16.76343 -62.31346,-20.72858 -2.43091,-0.7404 -2.18739,-2.37823 2.05186,-13.79975 l 3.71163,-10 22.74325,-0.26877 c 12.50879,-0.14783 22.74326,-0.11415 22.74326,0.0748 0,0.189 -1.125,3.65126 -2.5,7.69393 -1.375,4.04267 -2.5,7.72149 -2.5,8.17515 0,1.05637 34.08504,1.05772 35.74855,10e-4 1.83142,-1.1625 7.25145,-17.91407 7.25145,-22.41149 0,-4.56796 -3.44232,-8.38931 -8.37178,-9.29357 -1.72052,-0.31561 -23.82822,-0.43822 -49.12822,-0.27246 l -46,0.30137 -6.22237,2.87417 c -11.75048,5.42764 -18.93739,15.65774 -25.78716,36.70639 -3.0876,9.48786 -2.90572,12.76212 0.84547,15.21999 1.29769,0.85028 16.94048,6.35405 34.76175,12.2306 17.82127,5.87655 32.74261,10.99888 33.15854,11.38297 0.41593,0.38409 -1.21812,6.07304 -3.63123,12.64211 l -4.38745,11.94377 -22.11878,0.26913 c -13.99328,0.17027 -22.11877,-0.0917 -22.11877,-0.71298 0,-0.54016 0.9,-3.26543 2,-6.05615 1.1,-2.79072 2,-5.28238 2,-5.53702 0,-0.25464 -8.7199,-0.46298 -19.37756,-0.46298 -14.30767,0 -19.63642,0.32705 -20.36699,1.25 -1.9647,2.48209 -5.25545,12.9093 -5.25545,16.65265 0,2.35258 0.79513,4.83848 2.0633,6.45069 4.14012,5.26332 7.3761,5.5757 55.4367,5.35146 43.47258,-0.20284 44.06888,-0.23311 49.74666,-2.52565 z M 547.20401,642.57075 c 1.27511,-3.2922 3.44871,-7.1172 4.83023,-8.5 2.50255,-2.50487 2.59602,-2.51603 25.24145,-3.01418 20.90305,-0.45982 22.40816,-0.61031 18.7296,-1.87269 -19.50657,-6.69409 -27.27946,-10.94434 -30.73932,-16.80836 l -2.03035,-3.44119 -3.90598,4.06495 c -7.79017,8.10725 -15.72629,10.78002 -54.95937,18.50951 -15.60074,3.07357 -31.98586,6.69017 -36.41138,8.03687 -8.02133,2.44094 -13.37468,6.21156 -11.99295,8.44724 0.46915,0.7591 13.90607,1.00628 44.79494,0.82403 l 44.12475,-0.26036 z M 282.03892,621.58873 c -6.06766,-1.62842 -10.53363,-6.13942 -10.53363,-10.63984 0,-4.69971 10.53502,-35.70267 14.23737,-41.89839 3.64968,-6.1076 10.9624,-11.26954 17.49451,-12.34914 7.76389,-1.28318 25.59432,-0.61683 30.74498,1.14898 6.80287,2.33225 9.9209,6.85981 9.17838,13.32758 -0.80978,7.05372 -9.1889,31.68601 -12.88511,37.87865 -3.90531,6.54296 -10.54096,11.3562 -17.80308,12.91365 -6.86951,1.47324 -24.3384,1.25427 -30.43342,-0.38149 z m 28.37434,-4.51471 c 6.95431,-1.31885 13.06513,-5.70083 16.27345,-11.66945 2.90229,-5.39928 10.24296,-27.52554 11.3004,-34.06169 1.36648,-8.44636 -5.21321,-11.01437 -25.82542,-10.0795 -6.52956,0.29615 -11.2277,1.0252 -13.1564,2.0416 -3.7355,1.96855 -8.77313,7.25243 -10.85227,11.38275 -2.35568,4.67967 -10.28881,28.27108 -11.07593,32.93737 -0.92165,5.46391 1.48252,8.49154 7.51819,9.46782 6.73008,1.08859 20.02954,1.07886 25.81798,-0.0189 z m -13.40797,-2.41996 c -4.85951,-2.14504 -7.01569,-5.26404 -6.8805,-9.9529 0.15828,-5.48927 8.88443,-31.29202 11.93979,-35.30531 3.43267,-4.50888 10.33565,-6.98694 15.31082,-5.49634 9.45273,2.83211 10.02658,7.95391 3.1682,28.27715 -5.46741,16.20143 -7.74817,19.93241 -13.75619,22.50307 -3.94671,1.68868 -5.90998,1.68353 -9.78212,-0.0257 z m 11.67106,-7.62132 c 3.09423,-3.27954 12.13124,-29.55417 11.63485,-33.82772 -0.73053,-6.28939 -11.00587,-6.14807 -14.87961,0.20464 -1.72721,2.83254 -8.92976,23.53847 -10.28193,29.55858 -1.67729,7.46759 7.66682,10.27531 13.52669,4.0645 z m -103.60289,14.13414 c -0.32487,-0.52567 4.02688,-15.18521 9.67057,-32.57677 l 10.26126,-31.62101 23.8337,0.29373 23.8337,0.29374 2.9163,3.26578 c 3.54463,3.96939 3.85683,9.18742 1.03962,17.37577 -6.12085,17.79057 -11.78062,21.88126 -31.33056,22.64472 l -11.70725,0.45719 -3.37411,10.12827 -3.37411,10.12827 -10.58922,0.28303 c -5.98568,0.15998 -10.84601,-0.13248 -11.1799,-0.67272 z m 21.70734,-14.42493 c 3.4504,-10.36519 3.91229,-10.67361 16.03959,-10.70983 10.19135,-0.0304 16.20811,-1.37451 20.37272,-4.55101 4.1218,-3.14385 9.30141,-13.92007 10.01529,-20.83687 0.86182,-8.3503 0.18758,-8.58767 -24.39347,-8.58767 h -20.24535 l -8.53214,26.31457 c -4.69268,14.47302 -8.53215,26.64449 -8.53215,27.04772 0,0.40323 2.77678,0.59917 6.17063,0.43543 l 6.17063,-0.29772 z m 9.4177,-14.38564 c -3.83113,-0.99291 -3.94893,-4.91657 -0.46672,-15.5459 3.75622,-11.46571 4.62588,-12.18266 13.98604,-11.52997 9.2494,0.64495 12.57068,5.02571 10.63901,14.03279 -1.50183,7.00277 -5.61585,11.09814 -12.66797,12.61055 -5.39003,1.15596 -8.27934,1.26472 -11.49036,0.43253 z m 14.49696,-6.40151 c 2.1401,-1.14535 4.29343,-5.18421 5.14083,-9.64233 0.81478,-4.28649 -2.304,-6.51289 -8.49932,-6.06739 l -4.33168,0.31149 -2.66476,8 c -1.46562,4.4 -2.70312,8.37967 -2.75,8.84372 -0.10595,1.04876 10.66408,-0.1392 13.10493,-1.44549 z m 83.80983,35.36979 c 0,-0.42215 4.76246,-15.05515 10.58325,-32.51778 l 10.58326,-31.75024 h 10.87238 10.87239 l -1.53143,4.25 c -2.68191,7.44276 -15.37985,44.14423 -15.37985,44.45312 0,0.16328 6.075,0.29688 13.5,0.29688 7.425,0 13.49607,0.3375 13.49127,0.75 -0.005,0.4125 -1.07376,3.9 -2.37548,7.75 l -2.36675,7 -24.12452,0.26778 c -13.26849,0.14728 -24.12452,-0.0776 -24.12452,-0.49976 z m 45.39301,-6.84981 c 1.20108,-3.12995 0.47461,-3.41841 -8.64301,-3.43186 -17.97189,-0.0265 -17.8374,0.41561 -8.36751,-27.50794 l 7.31489,-21.56919 -5.51717,0.29539 -5.51717,0.29539 -8.34004,25 c -4.58702,13.75 -8.59153,25.7875 -8.89891,26.75 -0.51888,1.62479 0.79778,1.75 18.40153,1.75 16.36692,0 19.04343,-0.21636 19.56739,-1.58179 z m 15.36049,7.00195 c -0.35312,-0.35312 1.13288,-5.6177 3.30223,-11.69908 2.16935,-6.08137 3.94427,-11.86136 3.94427,-12.84442 0,-1.69806 -1.65428,-7.93349 -8.00089,-30.1575 l -2.79316,-9.78085 11.53463,0.28085 11.53462,0.28084 1.25856,5 c 0.69221,2.75 1.79634,7.63155 2.45362,10.84789 l 1.19506,5.84789 2.56338,-3.84789 c 1.40986,-2.11634 4.99406,-7.11039 7.96489,-11.09789 l 5.4015,-7.25 h 11.02906 11.02907 l -3.77073,5.25 c -2.0739,2.8875 -5.62974,7.5 -7.90187,10.25 -13.5604,16.41239 -20.30842,26.49951 -23.34914,34.90296 -1.71043,4.727 -3.39237,9.7201 -3.73764,11.09579 -0.61634,2.45569 -0.80647,2.50125 -10.43758,2.50125 -5.39539,0 -10.43261,0.23899 -11.19383,0.5311 -0.76121,0.2921 -1.67293,0.24218 -2.02605,-0.11094 z m 19.73023,-7.17016 c 0.38373,-0.9625 2.05333,-5.575 3.71021,-10.25 2.94918,-8.32131 8.45648,-16.59868 22.28902,-33.5 7.55854,-9.23542 7.39548,-8.50561 1.88948,-8.45685 l -4.87244,0.0431 -6.26624,8.70686 c -3.44643,4.78877 -6.85653,9.5506 -7.57799,10.58185 -1.56099,2.23127 -6.23012,2.47923 -8.27015,0.43919 -0.7897,-0.7897 -1.87461,-4.10845 -2.4109,-7.375 -2.0015,-12.19095 -1.79043,-11.89991 -8.87607,-12.23907 -5.63676,-0.2698 -6.21145,-0.11937 -5.73023,1.5 3.43505,11.55959 8.63158,31.39189 8.63158,32.94203 0,1.09047 -1.32147,5.89209 -2.93659,10.67026 l -2.93659,8.68763 h 6.3296 c 5.09573,0 6.46561,-0.34114 7.02731,-1.75 z M 68.903577,520.16725 c -7.613491,-2.17964 -14.444342,-6.13824 -20.717848,-12.00637 -9.4928,-8.8794 -13.55061,-19.06291 -14.386444,-36.10431 -0.475343,-9.69155 -0.230129,-12.82006 1.559324,-19.89428 4.005014,-15.83297 13.616281,-26.26536 29.795597,-32.34112 5.650811,-2.12203 7.387071,-2.2089 50.724694,-2.53787 l 44.8736,-0.34063 -0.7076,-7.18095 c -0.83681,-8.4923 -2.54162,-11.77597 -7.58568,-14.61089 -3.62597,-2.03791 -4.91578,-2.09426 -47.93895,-2.09426 -49.140541,0 -49.377383,-0.0293 -52.437701,-6.4784 -2.093846,-4.41246 -2.13063,-17.55085 -0.06035,-21.55433 0.83431,-1.61338 2.97181,-3.72853 4.750007,-4.70034 2.96385,-1.61979 7.23012,-1.76693 51.233074,-1.76693 43.74438,0 48.53195,0.16293 54,1.83777 17.14821,5.25242 28.00435,14.98298 33.77764,30.27556 2.18672,5.79229 2.22638,6.7765 2.47386,61.38667 l 0.25151,55.5 -2.25151,3.91159 c -2.54426,4.42019 -6.55292,6.80391 -15.21161,9.04546 -5.0053,1.29578 -13.97631,1.53154 -55.99999,1.47171 -44.489433,-0.0633 -50.716713,-0.26501 -56.141623,-1.81808 z m 90.196733,-34.21586 c 1.67611,-1.85225 1.90204,-3.70971 1.88044,-15.45955 -0.022,-11.94967 -0.24365,-13.64789 -2.10753,-16.14482 l -2.08299,-2.79045 -35.39246,-0.2758 c -40.476423,-0.31541 -41.964313,-0.095 -46.595883,6.90381 -4.41482,6.67124 -4.10099,18.03705 0.66534,24.09646 4.41039,5.6069 5.36054,5.72801 45.133083,5.75276 35.949,0.0224 36.62864,-0.0144 38.5,-2.08241 z m 65.16755,34.5835 c -5.95509,-3.32628 -5.76292,-0.66738 -5.75883,-79.67866 0.004,-69.94398 0.0673,-72.40397 1.95578,-75.50111 4.19667,-6.88277 2.42013,-6.6969 63.54048,-6.64816 48.84683,0.0389 55.72719,0.23716 61.5,1.77167 18.96044,5.04 33.56246,20.46746 36.9243,39.0116 1.71104,9.43824 1.45856,110.72601 -0.28628,114.84846 -2.71395,6.41208 -4.54515,7.1815 -17.98987,7.55879 -9.80472,0.27514 -12.73376,0.0259 -15.18388,-1.29208 -6.15277,-3.30971 -5.91822,-1.16716 -6.46427,-59.04883 -0.55517,-58.84826 -0.2114,-55.96638 -7.43234,-62.30645 -5.74224,-5.04175 -8.26327,-5.34735 -41.29634,-5.00596 l -30.22868,0.31241 -2.77132,2.77195 -2.77132,2.77196 -0.5,57.45962 -0.5,57.45963 -3.26649,3.26842 -3.26649,3.26842 -11.73351,0.25367 c -9.03498,0.19533 -12.36308,-0.098 -14.47094,-1.27535 z m 216.44324,-0.0349 c -17.82134,-4.7969 -31.23134,-17.92609 -35.65456,-34.90798 -1.273,-4.88736 -1.55125,-12.93246 -1.55125,-44.85119 0,-42.16801 0.33831,-45.4905 5.71365,-56.11285 3.3416,-6.60342 13.5921,-16.60215 20.40362,-19.90246 11.96548,-5.79751 13.62104,-5.96614 61.24237,-6.23791 31.14416,-0.17774 44.19024,-0.58018 45,-1.38815 0.76991,-0.7682 1.30279,-9.75835 1.64036,-27.67435 l 0.5,-26.5365 3.26578,-2.91602 c 3.18943,-2.84784 3.5237,-2.91601 14.29966,-2.91601 8.05997,0 11.8503,0.42219 14.063,1.56642 6.09693,3.15284 5.87156,-0.90625 5.87156,105.75224 0,70.03613 -0.31903,98.33745 -1.13606,100.78212 -2.31167,6.91673 -9.96803,12.38895 -21.55724,15.40755 -8.21685,2.14022 -104.11464,2.08465 -112.10089,-0.065 z m 89.15091,-34.07644 c 1.91611,-0.91374 4.3537,-3.28623 5.53393,-5.38616 2.04216,-3.63358 2.10935,-4.95432 2.10935,-41.46268 0,-41.02441 -0.11004,-41.88036 -5.71232,-44.43293 -1.56743,-0.71416 -14.07613,-1.0777 -36.58473,-1.06325 -38.45589,0.0247 -39.42963,0.18358 -45.38226,7.40516 -4.97673,6.03763 -5.32259,8.72611 -5.29873,41.1889 0.0241,32.79243 0.33793,34.77291 6.39439,40.35364 5.14973,4.74522 6.14647,4.86324 41.79972,4.94912 29.23871,0.0704 34.17085,-0.13564 37.14065,-1.55184 z m 67.04328,32.23302 -3.4,-3.4 v -57.3899 c 0,-47.6446 0.2533,-58.36238 1.49167,-63.1168 4.36324,-16.75163 14.88725,-27.68043 32.26439,-33.50541 7.62369,-2.55553 8.20203,-2.59655 37.24394,-2.64186 32.13754,-0.0501 34.27209,0.25884 37.30943,5.40065 2.50155,4.23479 2.11028,6.67498 -2.5694,16.02409 -6.30454,12.59527 -5.92049,12.42862 -30.0586,13.04238 -18.34728,0.46651 -20.56003,0.71438 -24.34722,2.72736 -2.29118,1.21781 -5.15753,3.60699 -6.36966,5.30927 -4.77903,6.71153 -4.96455,9.015 -4.96455,61.64127 0,54.18912 -0.0555,54.73493 -5.87156,57.74253 -2.26201,1.16973 -6.10598,1.56642 -15.17878,1.56642 h -12.14966 z m 145.87451,1.86096 c -17.77945,-4.78868 -30.33454,-17.07606 -34.74332,-34.00251 -2.24908,-8.63483 -2.24908,-82.28207 0,-90.9169 4.50482,-17.29515 18.08292,-30.66406 35.73953,-35.18891 6.41012,-1.64271 11.47848,-1.85193 44.72928,-1.84639 40.85158,0.007 43.21861,0.25524 55,5.77246 8.39633,3.93199 18.59777,13.97941 22.39636,22.05821 5.04155,10.72233 5.56868,15.94143 5.5715,55.16308 0.002,28.62041 -0.307,37.31335 -1.50764,42.40693 -4.21013,17.86096 -18.28173,31.68593 -37.29074,36.63714 -7.95966,2.07323 -82.14353,2.00464 -89.89497,-0.0831 z m 80.63946,-35.78363 c 2.82388,-1.86988 4.99244,-4.40151 6.42441,-7.5 2.07302,-4.48561 2.16162,-5.989 2.16162,-36.67733 0,-31.08379 -0.0632,-32.11808 -2.20615,-36.12421 -2.73289,-5.1089 -7.22968,-8.98255 -12.08892,-10.41369 -2.40104,-0.70715 -13.20716,-0.98047 -30.70493,-0.77663 -25.08655,0.29224 -27.28347,0.46243 -31,2.40152 -4.47604,2.33536 -7.97871,6.87635 -9.48397,12.29538 -1.3422,4.83202 -1.31831,61.48907 0.028,66.33658 1.37753,4.96003 5.47065,9.64906 10.41462,11.93088 3.69588,1.70579 6.52697,1.84323 33.11697,1.60771 l 29.07559,-0.25754 4.26278,-2.82267 z m 72.23948,-91.85103 c -5.85855,-1.0176 -9.99059,-3.59064 -13.81192,-8.60074 -9.09377,-11.92273 -5.35737,-29.0522 7.76323,-35.59047 16.29475,-8.12002 34.31084,3.26338 34.08167,21.53437 -0.18876,15.04951 -12.86167,25.29203 -28.03298,22.65684 z m 13.53041,-5.76976 c 2.63215,-1.19503 5.22831,-3.47765 7,-6.15459 2.4282,-3.6689 2.81614,-5.23903 2.81614,-11.3978 0,-8.1901 -2.09922,-12.32743 -8.38429,-16.5245 -5.42465,-3.62249 -15.04949,-3.49785 -20.84517,0.26993 -10.16886,6.61079 -11.53342,22.87502 -2.5972,30.95609 5.35754,4.84485 14.89715,6.08045 22.01052,2.85087 z m -4.40924,-4.30654 c -0.53364,-0.6875 -2.02161,-3.1625 -3.30658,-5.5 -1.41935,-2.58193 -3.04902,-4.25 -4.15218,-4.25 -1.51237,0 -1.81586,0.83568 -1.81586,5 0,4.33333 -0.26667,5 -2,5 -1.89744,0 -2,-0.66667 -2,-13 v -13 h 7.04545 c 6.23546,0 7.34133,0.29587 9.61893,2.57347 2.14255,2.14255 2.47548,3.18908 1.9883,6.25 -0.35038,2.20144 -1.63932,4.59234 -3.21257,5.95912 -2.86942,2.49284 -3.04989,1.64328 2.01109,9.46741 1.77251,2.74025 1.76998,2.75 -0.71375,2.75 -1.37091,0 -2.92918,-0.5625 -3.46283,-1.25 z m -1.83972,-13.72525 c 1.7382,-0.66086 2.5651,-1.72466 2.5651,-3.3 0,-3.32124 -1.84174,-4.72475 -6.2,-4.72475 h -3.8 v 4.5 c 0,4.10125 0.21576,4.5 2.4349,4.5 1.3392,0 3.5892,-0.43886 5,-0.97525 z M 776.02771,327.50557 c -14.95913,-2.82773 -30.26102,-10.74986 -42.21116,-21.85367 -12.1488,-11.28839 -20.14092,-24.0806 -24.55083,-39.29615 -1.93591,-6.6795 -2.2496,-10.02441 -2.185,-23.29918 0.0689,-14.15304 0.31799,-16.23866 2.86658,-24 5.05373,-15.39032 11.83822,-26.47482 22.64659,-37 25.18173,-24.52194 66.08076,-30.50506 98.21857,-14.36839 30.98666,15.55867 50.91819,51.73185 46.83078,84.99188 -3.67624,29.91416 -21.23891,54.44216 -48.20219,67.3191 -16.1203,7.69862 -36.92746,10.62274 -53.41334,7.50641 z m 31.47758,-54.25016 c 1.375,-0.98351 3.85,-4.46809 5.5,-7.74352 2.94991,-5.85588 2.99984,-6.21413 2.99014,-21.45532 -0.009,-14.15259 -0.21616,-15.95839 -2.38307,-20.77308 -4.09243,-9.09302 -11.35533,-13.06813 -21.36211,-11.69184 -6.60022,0.90776 -11.94511,5.63878 -14.43536,12.77744 -1.43515,4.11407 -1.8096,8.29132 -1.8096,20.18748 0,14.6766 0.0647,15.1284 3,20.95532 1.65,3.27543 4.22835,6.84396 5.72967,7.93007 5.21894,3.77559 17.37021,3.67604 22.77033,-0.18655 z m -13.6917,-7.20844 c -4.57934,-1.84457 -5.78268,-5.50673 -6.16279,-18.75549 -0.45137,-15.73238 0.23923,-20.34692 3.53888,-23.64657 4.69302,-4.69303 10.43771,-2.51807 12.40951,4.69827 0.6332,2.31737 1.14226,9.61339 1.13126,16.21339 -0.0227,13.59597 -1.61833,19.44685 -5.82646,21.3642 -1.37104,0.62469 -2.58413,1.10728 -2.69575,1.07241 -0.11162,-0.0349 -1.18922,-0.46065 -2.39465,-0.94621 z m -30.30857,2.2596 2.7e-4,-6.25 h 3.5 3.5 v -5 -5 h -3.5 -3.5 v -20 -20 l -6.75,0.003 -6.75,0.003 -10.75,20.02565 c -9.53995,17.77066 -10.75,20.58443 -10.75,24.99657 v 4.97178 h 12 12 v 6.32211 6.32211 l 5.49973,-0.0721 5.49974,-0.0721 2.6e-4,-6.25 z m -23.99973,-16.59036 c 0,-0.18719 2.7,-5.32426 6,-11.41571 3.3,-6.09144 6,-11.56328 6,-12.15964 0,-0.59636 0.49814,-1.08429 1.10699,-1.08429 0.60884,0 0.83384,0.7118 0.5,1.58179 -0.33385,0.86998 -0.60699,6.49498 -0.60699,12.5 v 10.91821 h -6.5 c -3.575,0 -6.5,-0.15316 -6.5,-0.34036 z m 108,4.84036 v -6.5 h 7 7 v -5 -5 h -7 -7 v -7 -7 h -5 -5 v 7 7 h -6.5 -6.5 v 5 5 h 6.5 6.5 v 6.5 6.5 h 5 5 z"
       id="path145" />
  </g>
</svg>
